<svg width="426" height="367" viewBox="0 0 426 367" fill="none" xmlns="http://www.w3.org/2000/svg">
<path d="M312.496 26.7229C312.496 26.7229 177.456 -66.8226 73.0682 99.3228C-31.3199 265.468 8.1233 331.695 8.1233 331.695C8.1233 331.695 24.7031 376.619 69.303 364.57C113.903 352.52 141.084 343.17 178.308 314.38C215.533 285.589 213.955 277.438 223.291 250.039C232.626 222.639 265.801 220.243 280.368 224.221C294.936 228.2 339.03 227.467 357.719 223.757C376.409 220.047 419.247 201.401 424.551 170.569C429.856 139.738 408.425 113.869 381.84 80.3469C355.254 46.8246 317.215 28.835 317.215 28.835L312.496 26.7229Z" fill="url(#paint0_linear)"/>
<defs>
<linearGradient id="paint0_linear" x1="157.903" y1="20.1821" x2="231.362" y2="288.676" gradientUnits="userSpaceOnUse">
<stop stop-color="#FFFF00" stop-opacity="0.98"/>
<stop offset="1" stop-color="#FF00EE"/>
</linearGradient>
</defs>
</svg>
