<svg id="visual" viewBox="0 0 600 600" width="600" height="600" xmlns="http://www.w3.org/2000/svg" xmlns:xlink="http://www.w3.org/1999/xlink" version="1.1"><g transform="translate(322.5313974431333 331.0357240486336)"><path d="M111.6 -175.2C141.3 -132 159.8 -95 188 -51C216.2 -7 254.1 43.9 258.9 101.1C263.6 158.2 235.3 221.5 186.6 237.3C137.9 253.2 69 221.6 12.7 204.1C-43.5 186.5 -87 183.1 -139.8 168.6C-192.6 154 -254.6 128.5 -283.4 82.1C-312.3 35.7 -307.8 -31.4 -291.8 -99.1C-275.7 -166.8 -248.1 -235.1 -197.5 -271.5C-146.9 -307.9 -73.5 -312.5 -16.3 -290.1C40.9 -267.7 81.9 -218.4 111.6 -175.2" fill="#eb2372"></path></g></svg>