<svg id="visual" viewBox="0 0 600 600" width="600" height="600" xmlns="http://www.w3.org/2000/svg" xmlns:xlink="http://www.w3.org/1999/xlink" version="1.1"><g transform="translate(309.8392378327671 317.4517391412997)"><path d="M128.3 -185.3C171.6 -145.2 215.6 -114.8 243 -69.7C270.4 -24.6 281.2 35.1 273.6 98.3C266 161.4 240 227.9 191.3 243.4C142.6 258.8 71.3 223.2 12.1 206.4C-47 189.7 -94 191.9 -125.7 171C-157.4 150 -173.8 105.9 -209.8 54.2C-245.7 2.6 -301.2 -56.7 -295.2 -102.4C-289.3 -148.2 -221.9 -180.5 -162.5 -215.3C-103.1 -250.2 -51.5 -287.6 -4.5 -281.4C42.5 -275.2 85 -225.4 128.3 -185.3" fill="#23b4eb"></path></g></svg>